<svg width="10" height="18" viewBox="0 0 10 18" fill="none" xmlns="http://www.w3.org/2000/svg">
    <path d="M5.03937 17.4401C5.1284 17.4017 5.20972 17.3475 5.27937 17.2801L9.27937 13.2801C9.41185 13.1379 9.48397 12.9499 9.48054 12.7556C9.47711 12.5613 9.3984 12.3759 9.26099 12.2385C9.12358 12.101 8.93819 12.0223 8.74389 12.0189C8.54959 12.0155 8.36154 12.0876 8.21937 12.2201L5.49937 14.9401V2.56007L8.21937 5.28007C8.36154 5.41255 8.54959 5.48468 8.74389 5.48125C8.93819 5.47782 9.12358 5.39911 9.26099 5.2617C9.3984 5.12428 9.47711 4.9389 9.48054 4.7446C9.48397 4.5503 9.41185 4.36225 9.27937 4.22007L5.27937 0.220075C5.20972 0.152641 5.1284 0.0984261 5.03937 0.0600746C4.94782 0.0204455 4.84912 0 4.74937 0C4.64961 0 4.55091 0.0204455 4.45937 0.0600746C4.37033 0.0984261 4.28901 0.152641 4.21937 0.220075L0.219367 4.22007C0.0789161 4.3607 2.67029e-05 4.55132 2.67029e-05 4.75007C2.67029e-05 4.94883 0.0789161 5.13945 0.219367 5.28007C0.359992 5.42052 0.550616 5.49941 0.749367 5.49941C0.948117 5.49941 1.13874 5.42052 1.27937 5.28007L3.99937 2.56007V14.9401L1.27937 12.2201C1.13874 12.0796 0.948117 12.0007 0.749367 12.0007C0.550616 12.0007 0.359992 12.0796 0.219367 12.2201C0.0789161 12.3607 2.67029e-05 12.5513 2.67029e-05 12.7501C2.67029e-05 12.9488 0.0789161 13.1394 0.219367 13.2801L4.21937 17.2801C4.28901 17.3475 4.37033 17.4017 4.45937 17.4401C4.55091 17.4797 4.64961 17.5001 4.74937 17.5001C4.84912 17.5001 4.94782 17.4797 5.03937 17.4401Z" fill="black"/>
</svg>
